<?xml version="1.0" encoding="utf-8"?>
<!-- Generator: Adobe Illustrator 21.0.2, SVG Export Plug-In . SVG Version: 6.00 Build 0)  -->
<svg version="1.1" id="Layer_1" xmlns="http://www.w3.org/2000/svg" xmlns:xlink="http://www.w3.org/1999/xlink" x="0px" y="0px"
	 viewBox="0 0 1000 394.5" style="enable-background:new 0 0 1000 394.5;" xml:space="preserve">
<style type="text/css">
	.st0{fill:#FFFFFF;}
</style>
<g>
	<g>
		<path class="st0" d="M61.2,307.7H42V174.7h15.6l43.9,64.6l43.9-64.6h15.2v132.9h-19V214l-34.8,51.7H95.9L61.2,214V307.7z"/>
		<path class="st0" d="M199.6,193.1c12.2-12.3,29.2-20.1,47.9-20.1c18.8,0,35.7,7.8,48.1,20.1c12,12.3,19.8,29.2,19.8,48.1
			c0,18.8-7.8,35.7-19.8,48.1c-12.3,12.5-29.2,20.1-48.1,20.1c-18.6,0-35.7-7.6-47.9-20.1c-12-12.3-19.8-29.2-19.8-48.1
			C179.9,222.4,187.7,205.5,199.6,193.1z M281.9,206.8c-8.9-8.9-21.3-14.4-34.4-14.4s-25.3,5.5-34,14.4
			c-8.7,8.7-14.2,20.9-14.2,34.4c0,13.5,5.5,25.6,14.2,34.4c8.7,8.9,20.9,14.4,34,14.4s25.5-5.5,34.4-14.4
			c8.5-8.7,14.1-20.7,14.1-34.4C295.9,227.5,290.4,215.5,281.9,206.8z"/>
		<path class="st0" d="M361.1,240.2h22.4c16.1,0,24.1-11.6,24.1-23.2c0-11.4-8-23-24.1-23H354v113.6h-19V174.7h48.4
			c28.9,0,43.3,21.3,43.3,42.4c0,18.8-11.6,36.7-34.4,40.6l42,50h-24.9l-48.4-58.3V240.2z"/>
		<path class="st0" d="M463,288.5h61.7v19.2h-81.1V174.9h80.9v19.2H463v37.4h60.2v19.4H463V288.5z"/>
		<path class="st0" d="M641.6,240.2H664c16.1,0,24.1-11.6,24.1-23.2c0-11.4-8-23-24.1-23h-29.4v113.6h-19V174.7H664
			c28.9,0,43.3,21.3,43.3,42.4c0,18.8-11.6,36.7-34.4,40.6l42,50H690l-48.4-58.3V240.2z"/>
		<path class="st0" d="M743.6,288.5h61.7v19.2h-81.1V174.9h80.9v19.2h-61.5v37.4h60.2v19.4h-60.2V288.5z"/>
		<path class="st0" d="M869.7,174.7c28.7,0,43.1,22.2,43.1,44.4c0,22.2-14.4,44.3-43.1,44.3h-29.2v44.3H821V174.7H869.7z
			 M869.7,244.4c16.1,0,24.1-12.5,24.1-25.1c0-12.7-8-25.3-24.1-25.3h-29.2v50.3H869.7z"/>
	</g>
</g>
<g>
	<g>
		<path class="st0" d="M54.9,41.1C67,28.8,84.1,21,102.7,21c18.8,0,35.7,7.8,48.1,20.1c12,12.3,19.8,29.2,19.8,48.1
			s-7.8,35.7-19.8,48.1c-12.3,12.5-29.2,20.1-48.1,20.1c-18.6,0-35.7-7.6-47.9-20.1c-12-12.3-19.8-29.2-19.8-48.1
			S42.9,53.4,54.9,41.1z M137.1,54.8c-8.9-8.9-21.3-14.4-34.4-14.4s-25.3,5.5-34,14.4C60,63.5,54.5,75.7,54.5,89.1
			s5.5,25.6,14.2,34.4c8.7,8.9,20.9,14.4,34,14.4s25.5-5.5,34.4-14.4c8.5-8.7,14.1-20.7,14.1-34.4S145.6,63.5,137.1,54.8z"/>
		<path class="st0" d="M190.1,155.6V22.5l14.8,0.2l64.8,93.6V22.7h19v132.9h-15.2l-64.2-92.9v92.9H190.1z"/>
		<path class="st0" d="M328,136.4h61.7v19.2h-81.1V22.9h80.9V42H328v37.4h60.2v19.4H328V136.4z"/>
	</g>
</g>
<g>
	<path class="st0" d="M330.5,337.9l-0.1,7H312v9.2h17v7.1h-17v14.2h-8.5v-37.6H330.5z"/>
	<path class="st0" d="M367.5,337.9v37.6H359v-37.6H367.5z"/>
	<path class="st0" d="M427.1,337.9v7.2h-11.5v30.4h-8.5v-30.4h-11.4v-7.2H427.1z"/>
	<path class="st0" d="M463,337.9l18.2,24.1v-24.1h8v37.6h-7.7l-18.2-24.1v24.1h-8.1v-37.6H463z"/>
	<path class="st0" d="M549.8,337.9v7h-20.1v8.2h18.1v7h-18.1v8.3h20.7v7h-29.2v-37.6H549.8z"/>
	<path class="st0" d="M593.7,344.8c-2.8,0-4.8,1-4.8,3.1c0,6.9,20,3.1,20,16.6c0,7.4-6.4,11.3-14.7,11.3c-6.2,0-12.3-2.4-16.6-6
		l3.4-6.9c3.9,3.4,9.3,5.6,13.3,5.6c3.5,0,5.6-1.3,5.6-3.6c0-7.1-20-3-20-16.3c0-6.8,5.8-11.1,14.5-11.1c5.3,0,10.5,1.6,14.3,4.1
		l-3.3,7C601.4,346.3,596.7,344.8,593.7,344.8z"/>
	<path class="st0" d="M651.5,344.8c-2.8,0-4.8,1-4.8,3.1c0,6.9,20,3.1,20,16.6c0,7.4-6.4,11.3-14.7,11.3c-6.2,0-12.3-2.4-16.6-6
		l3.4-6.9c3.9,3.4,9.3,5.6,13.3,5.6c3.5,0,5.6-1.3,5.6-3.6c0-7.1-20-3-20-16.3c0-6.8,5.8-11.1,14.5-11.1c5.3,0,10.5,1.6,14.3,4.1
		l-3.3,7C659.2,346.3,654.5,344.8,651.5,344.8z"/>
	<path class="st0" d="M760.7,368.2h-17.4l-3,7.3h-8.7l16.3-37.6h8.7l16,37.6h-9.1L760.7,368.2z M758,361.4l-5.9-14.6l-6,14.6H758z"
		/>
	<path class="st0" d="M831.2,351c0,8.7-5.5,13.8-15,13.8h-7.5v10.7h-8.5v-37.6h15.9C825.8,337.9,831.2,342.7,831.2,351z
		 M823.2,351.2c0-4.2-2.7-6.3-7.4-6.3h-7v12.7h7C820.5,357.7,823.2,355.5,823.2,351.2z"/>
	<path class="st0" d="M891.2,351c0,8.7-5.5,13.8-15,13.8h-7.5v10.7h-8.5v-37.6h15.9C885.8,337.9,891.2,342.7,891.2,351z
		 M883.2,351.2c0-4.2-2.7-6.3-7.4-6.3h-7v12.7h7C880.5,357.7,883.2,355.5,883.2,351.2z"/>
</g>
<rect x="35.4" y="341.5" class="st0" width="252.6" height="31.5"/>
</svg>
